<?xml version="1.0" encoding="UTF-8" standalone="no"?>
<!-- Created with Inkscape (http://www.inkscape.org/) -->

<svg
   version="1.1"
   id="svg2"
   xml:space="preserve"
   width="6666.6665"
   height="3999.5732"
   viewBox="0 0 6666.6665 3999.5732"
   sodipodi:docname="18191539_177.eps"
   xmlns:inkscape="http://www.inkscape.org/namespaces/inkscape"
   xmlns:sodipodi="http://sodipodi.sourceforge.net/DTD/sodipodi-0.dtd"
   xmlns="http://www.w3.org/2000/svg"
   xmlns:svg="http://www.w3.org/2000/svg"><defs
     id="defs6" /><sodipodi:namedview
     id="namedview4"
     pagecolor="#ffffff"
     bordercolor="#666666"
     borderopacity="1.0"
     inkscape:pageshadow="2"
     inkscape:pageopacity="0.0"
     inkscape:pagecheckerboard="0" /><g
     id="g8"
     inkscape:groupmode="layer"
     inkscape:label="ink_ext_XXXXXX"
     transform="matrix(1.3333333,0,0,-1.3333333,0,3999.5733)"><g
       id="g10"
       transform="scale(0.1)"><path
         d="M 0,29996.8 H 50000 V 0 H 0 v 29996.8"
         style="fill:#21b9ea;fill-opacity:1;fill-rule:evenodd;stroke:none"
         id="path12" /><path
         d="m 24693.3,20298.2 1203.6,318.4 155.4,-582.5 -1203.7,-326.1 c -388.3,-100.9 -543.6,481.5 -155.3,590.2 z m 504.8,-1887.1 1203.5,326.2 155.2,-590.2 -1203.5,-318.3 c -388.2,-108.7 -543.6,481.5 -155.2,582.3 z M 43500.6,19871 c 38.9,54.4 69.9,108.7 108.6,155.4 -1514.1,131.9 -3036,23.3 -4402.8,-341.7 -1980.1,-528 -3276.8,-1483.2 -3758.4,-2306.3 -147.6,-248.4 -209.6,-481.4 -194.2,-683.4 15.6,-186.3 116.7,-341.6 287.4,-458 411.7,-271.8 1234.8,-318.5 2531.5,31 2158.6,574.7 4387.3,2143.1 5427.9,3603 z M 50000,17774.4 v 349.4 c -823.1,621.3 -1832.5,1126 -2958.5,1491 -931.7,310.6 -1949.2,535.8 -2974,644.5 155.2,310.6 256.3,605.8 287.3,893 46.6,465.8 -101.1,877.5 -481.5,1195.9 -551.3,458.1 -1622.8,698.8 -3370.2,590.1 -2562.3,-170.9 -5800.4,-1094.9 -7804,-1661.8 -411.5,-116.3 -776.4,-225.1 -1063.7,-302.8 l 15.5,-31 -31.1,93.1 c -7.7,46.6 -62,77.7 -108.5,62.1 l -85.7,-23.2 c -46.5,-15.6 -69.7,-62.2 -62,-108.8 l 15.5,-54.3 -132.1,-31 -15.6,54.3 c -15.5,46.5 -62,69.8 -108.6,62.1 l -85.3,-23.3 c -46.8,-15.5 -77.9,-62.1 -62.3,-108.6 l 15.5,-54.5 -116.4,-31 -31,116.5 c -31,100.9 -131.9,163 -240.8,139.7 l -85.3,-23.3 -93.1,357.2 c -85.7,295.1 -310.9,1125.9 -1685.1,753.2 l -1708.4,-458.1 -23.3,70 c -69.8,287.2 -364.9,458 -652.2,380.4 l -116.7,-31.1 c -279.5,-77.7 -450.2,-372.7 -372.5,-652.3 l 1071.6,-3999 c 69.8,-287.3 364.9,-458.3 652.2,-380.5 l 116.4,31 c 279.5,77.7 450.5,372.8 372.9,652.3 l -15.5,69.9 1708.4,458.2 c 1250.1,341.7 1156.7,1195.8 1079.1,1498.6 l -93,357.2 85.3,23.3 c 100.8,31 163.2,132 139.9,240.8 l -31,116.4 108.6,31.1 15.5,-54.3 c 15.5,-46.7 62.1,-77.7 108.6,-62.2 l 85.6,23.2 c 46.5,15.6 77.5,62.2 62.1,108.8 l -15.6,54.4 139.7,31.1 15.5,-46.6 c 7.8,-54.4 54.6,-77.7 108.9,-62.2 l 85.3,23.3 c 46.6,7.7 69.9,54.4 62.1,101 l -15.5,62 c 295,77.7 652.2,178.8 1063.9,295.1 1995.7,574.6 5210.4,1490.9 7749.7,1654.1 1669.3,108.6 2671.2,-108.8 3176,-528.1 302.9,-248.5 411.5,-582.4 372.6,-955 -31.2,-271.8 -132.1,-574.7 -310.5,-885.3 -1584.2,147.4 -3191.5,46.6 -4628.1,-334 -2057.8,-551.3 -3416.8,-1560.8 -3929.3,-2438.2 -170.7,-302.9 -248.5,-590.2 -225.3,-846.5 23.6,-271.8 155.5,-504.7 411.8,-667.7 465.7,-310.6 1374.2,-372.8 2748.7,-7.7 2213.2,597.8 4511.7,2213 5583.1,3719.5 70.1,93.1 132.1,186.4 194.2,287.3 1048.5,-108.7 2081.1,-334 3036.4,-644.5 1172.5,-388.4 2228.4,-924.2 3043.8,-1584.2 v 0"
         style="fill:#353333;fill-opacity:1;fill-rule:evenodd;stroke:none"
         id="path14" /><path
         d="m 27418.8,23955.6 c -31.1,-62.2 -108.6,-77.8 -162.9,-46.7 -54.3,31 -77.9,108.8 -46.8,163.2 l 357.3,613.4 c 31.1,54.3 108.7,77.6 163,46.5 54.3,-31 77.8,-108.7 38.7,-163 z m -4977.5,116.5 c 31,-54.4 7.8,-132.2 -46.5,-163.2 -54.3,-31.1 -124.3,-7.8 -163.1,46.7 l -349.5,613.4 c -38.8,54.3 -15.5,132 38.8,163 62.2,31.1 132.1,7.8 163.2,-46.5 z M 21393,23303.3 c 46.8,-46.6 39,-116.4 0,-163.1 -46.7,-46.6 -124.2,-46.6 -170.7,0 l -831,823.1 c -46.5,46.6 -38.8,124.3 0,170.8 46.6,46.6 124.2,46.6 171,0 z m 4837.7,1180.2 c -15.5,-69.8 -85.3,-100.8 -147.4,-85.3 -62,15.5 -101.1,77.6 -85.6,139.8 l 302.8,1133.6 c 15.5,62.2 85.7,101 147.7,85.4 62,-15.5 100.9,-85.4 85.3,-147.5 z m -1288.9,194.2 c 0,-62.1 -46.6,-116.4 -116.6,-116.4 -62.1,0 -116.4,54.3 -116.4,116.4 v 714.3 c 0,62.2 54.3,116.7 116.4,116.7 62.1,0 116.6,-54.5 116.6,-116.7 z M 23652.7,24538 c 15.4,-62.2 -23.3,-124.3 -85.4,-139.8 -62.1,-15.5 -124.3,15.5 -147.5,85.3 l -302.8,1126 c -15.6,62.1 23.2,132 85.4,147.5 62.1,15.6 131.9,-23.2 147.4,-85.4 z m -3074.9,-2244.2 c 54.3,-31.1 69.8,-108.8 38.8,-163.1 -31.1,-54.3 -101.1,-77.6 -163.2,-38.8 l -613.4,349.4 c -54.4,31 -77.6,108.7 -38.8,163.2 31,54.3 101,77.6 163,46.5 l 613.6,-357.2"
         style="fill:#ffffff;fill-opacity:1;fill-rule:nonzero;stroke:none"
         id="path16" /><path
         d="m 22581.1,14155.7 c 31.2,54.6 108.7,77.9 163,46.8 54.3,-38.7 77.8,-108.9 46.6,-163.2 l -357.1,-613.4 c -31.1,-62 -108.7,-77.6 -163.1,-46.5 -54.4,31 -77.7,108.6 -46.5,163.1 z m 4977.6,-116.4 c -31,54.3 -15.6,124.5 46.5,155.5 54.3,38.8 124.2,15.5 162.9,-39.1 l 349.7,-613.2 c 31,-54.5 15.5,-132.1 -38.8,-163.1 -62.4,-31.1 -132.1,-15.5 -163.2,46.5 z m 1048.4,761.1 c -46.9,46.6 -46.9,124.2 0,170.7 46.5,46.7 124.1,46.7 170.6,0 l 823.2,-830.9 c 46.6,-46.6 46.6,-116.4 0,-162.9 -46.5,-46.6 -116.4,-46.6 -163.2,0 z m -4837.8,-1172.5 c 15.5,62.1 85.3,100.9 147.4,85.3 62.2,-15.5 101,-85.3 85.5,-147.7 l -302.9,-1125.7 c -23.3,-62.3 -85.5,-101.1 -147.5,-85.5 -62.1,15.5 -101,77.8 -85.3,147.6 z m 1288.9,-202 c -7.8,69.8 46.6,124.1 116.6,124.1 62.1,0 116.4,-54.3 116.4,-124.1 v -706.5 c 0,-62.3 -54.3,-116.6 -116.4,-116.6 -70,0 -116.6,54.3 -116.6,116.6 z m 1288.9,139.6 c -15.5,62.4 23.5,132.2 85.6,147.7 62.1,15.6 124.1,-23.2 139.6,-85.3 l 302.9,-1126 c 23.5,-62.1 -15.5,-132.1 -77.6,-147.6 -69.9,-15.6 -131.9,23.2 -147.4,85.5 z m 3075.1,2252 c -54.3,31.2 -77.6,101 -38.8,163.2 31.1,54.3 101.1,69.8 163.2,38.8 l 613.4,-349.4 c 54.3,-38.9 69.8,-108.7 38.8,-163.1 -31,-62.1 -101.1,-77.6 -163.2,-46.6 l -613.4,357.1"
         style="fill:#353333;fill-opacity:1;fill-rule:nonzero;stroke:none"
         id="path18" /><path
         d="m 14746,21416.3 c 15.6,-201.8 -46.5,-434.9 -194,-683.4 -481.6,-823 -1778.2,-1778.2 -3766.2,-2314 -1359,-364.9 -2888.69,-465.9 -4395.02,-341.6 l 108.6,163 c 1040.62,1459.9 3269.21,3020.7 5427.92,3603.1 1289,341.6 2119.8,295.1 2531.4,31 170.8,-116.3 264,-271.8 287.3,-458.1 z m 9388.1,-4736.8 -1071.6,3999.1 c -77.6,287.3 -372.7,458.1 -652.2,380.5 l -116.5,-31.1 c -287.2,-77.6 -450.4,-372.7 -380.6,-652.2 l 23.4,-77.6 -1708.3,-450.5 c -279.5,-77.6 -458.1,-357.2 -427.1,-636.7 l -186.4,-54.3 c -349.5,-93.2 -559.1,-458.3 -465.8,-807.6 l 93,-357.2 -85.3,-23.3 c -108.7,-31.1 -170.9,-139.8 -139.9,-240.7 l 31.2,-116.5 -116.5,-31 -7.7,54.3 c -15.6,46.6 -62.2,69.9 -108.7,62.1 l -85.6,-23.2 c -46.5,-15.7 -77.5,-62.2 -62.1,-108.9 l 7.8,-54.3 -131.9,-38.8 -15.5,54.3 c -7.9,46.7 -62.2,77.7 -108.9,62.2 l -85.3,-23.4 c -46.6,-7.7 -69.8,-62.1 -62.1,-108.6 l 15.5,-54.3 c -295,-77.7 -652.3,-186.5 -1063.9,-302.9 -1995.7,-566.8 -5210.4,-1483.2 -7749.58,-1646.2 -1669.46,-116.6 -2671.33,108.7 -3176.02,520.3 -302.81,256.3 -411.56,582.4 -372.73,962.7 23.2,271.9 132.11,566.9 310.54,877.5 1584.22,-139.6 3191.49,-46.5 4628.09,341.8 2057.8,551.2 3416.8,1560.8 3921.5,2438.3 178.5,302.8 256.2,590.1 232.9,846.3 -23.3,271.8 -163,497 -411.5,667.8 -473.7,302.9 -1374.4,372.7 -2748.8,0 -2220.94,-590.1 -4511.72,-2205.2 -5583.28,-3711.8 -69.92,-93.1 -132.03,-194.1 -194.06,-287.3 -1048.44,108.7 -2081.18,326.1 -3036.33,644.6 C 1871.25,19141.2 815.234,19676.9 0,20329.2 v -349.5 c 815.234,-613.4 1832.5,-1118.1 2950.7,-1490.9 939.53,-310.6 1956.96,-528.1 2981.8,-644.5 -155.16,-302.9 -256.33,-605.7 -287.34,-885.3 -46.57,-465.8 93.28,-877.4 481.56,-1195.8 551.33,-458.1 1622.89,-706.6 3370.08,-590.1 2562.4,170.8 5800.5,1087.2 7804,1661.8 411.6,116.4 768.7,217.4 1056.1,295.1 l 23.3,-54.5 c 7.7,-46.5 54.3,-77.5 100.9,-62 l 93.3,23.3 c 46.5,7.7 69.7,62.1 62,108.7 l -15.5,46.5 132,38.8 15.5,-54.3 c 15.5,-46.5 62.2,-69.8 108.8,-62 l 85.3,23.2 c 46.6,15.5 77.7,62.1 62.1,108.7 l -15.5,54.4 116.6,31 31,-116.5 c 23.3,-108.6 131.9,-170.8 240.8,-139.8 l 85.3,23.4 93.1,-357.2 c 93.2,-349.5 458.3,-559.1 815.4,-465.9 l 186.5,46.5 c 108.6,-264 403.7,-411.5 683.2,-333.8 l 1708.4,458.1 15.5,-77.7 c 77.6,-279.6 372.7,-450.4 659.9,-372.6 l 116.7,31 c 279.6,69.8 450.2,364.9 372.6,652.2 v 0"
         style="fill:#ffffff;fill-opacity:1;fill-rule:evenodd;stroke:none"
         id="path20" /><path
         d="m 22262.7,5878.2 1126.1,1242.3 V 5878.2 Z M 23380.9,8060 21525.1,6072.4 v -869.7 h 1863.7 v -628.9 h 760.9 v 628.9 h 403.8 v 675.5 h -403.8 V 8060 Z M 17984.2,6072.4 c 0,-349.4 77.6,-644.7 232.8,-893 147.6,-248.5 341.8,-427.2 574.7,-535.8 232.9,-108.9 489.2,-171 768.7,-171 435,0 799.9,139.9 1087.2,419.5 295.1,279.5 442.6,675.5 442.6,1188 v 504.8 c 0,512.3 -147.5,900.5 -434.8,1180.3 -287.4,271.8 -660,411.5 -1102.7,411.5 -450.4,0 -823.2,-132.2 -1126.1,-411.5 -295,-271.8 -442.4,-668 -442.4,-1180.3 z m 776.5,504.5 c 0,295.4 69.9,512.6 217.3,668 147.7,147.4 341.8,225 574.7,225 232.9,0 411.5,-77.6 559.1,-232.7 139.8,-147.7 209.7,-373 209.7,-660.3 v -504.5 c 0,-295.1 -69.9,-520.4 -217.5,-675.8 -139.8,-155.2 -333.8,-232.7 -566.9,-232.7 -233,0 -419.1,77.5 -566.9,232.7 -139.6,155.4 -209.5,380.7 -209.5,675.8 z M 15243,5878.2 16368.9,7120.5 V 5878.2 Z M 16361.2,8060 14513.1,6072.4 v -869.7 h 1855.8 v -628.9 h 761.1 v 628.9 h 403.7 v 675.5 H 17130 V 8060 h -768.8"
         style="fill:#353333;fill-opacity:1;fill-rule:evenodd;stroke:none"
         id="path22" /><path
         d="m 34648.2,7726.2 c 93.1,0 170.9,-38.8 225.2,-100.9 46.6,-62.1 77.6,-131.9 77.6,-209.7 0,-77.6 -23.3,-139.7 -77.6,-201.7 -46.5,-54.3 -124.1,-85.6 -217.5,-85.6 h -520.3 v 597.9 z m 838.7,-1615 -559.2,675.4 c 186.5,62.1 302.8,147.7 372.7,248.6 62.3,108.6 101.1,240.7 101.1,388.1 0,194.2 -70.1,357.4 -202,489.3 -131.8,131.9 -318.3,202 -551.3,202 h -970.5 V 6072.4 h 457.9 v 667.7 h 326.4 l 520,-667.7 h 504.9 z m -2593.6,978.3 c 0,-186.2 -62.1,-349.4 -178.8,-473.5 -124,-116.7 -279.3,-178.7 -473.5,-178.7 -194.2,0 -349.4,62 -473.7,178.7 -124.2,124.1 -186.2,287.3 -186.2,473.5 0,194.2 62,349.4 186.2,473.7 124.3,132 279.5,194 473.7,194 194.2,0 349.5,-62 473.5,-194 116.7,-124.3 178.8,-279.5 178.8,-473.7 z m 450.5,0 c 0,333.8 -101.1,590.1 -302.9,784.3 -209.7,194.2 -473.7,287.4 -799.9,287.4 -333.8,0 -597.9,-93.2 -799.8,-287.4 -201.7,-194.2 -302.8,-450.5 -302.8,-784.3 0,-326.1 101.1,-582.4 302.8,-776.4 201.9,-194.2 466,-287.3 799.8,-287.3 326.2,0 590.2,93.1 799.9,287.3 201.8,194 302.9,450.3 302.9,776.4 z m -3222.5,636.7 c 100.8,0 170.6,-38.8 225.2,-100.9 54,-62.1 77.6,-131.9 77.6,-209.7 0,-77.6 -23.6,-139.7 -77.6,-201.7 -46.8,-54.3 -124.4,-85.6 -217.5,-85.6 h -520.3 v 597.9 z m 846.4,-1615 -567.2,675.4 c 186.5,62.1 310.9,147.7 372.9,248.6 69.9,108.6 100.9,240.7 100.9,388.1 0,194.2 -62,357.4 -202,489.3 -131.8,131.9 -318.3,202 -551,202 h -970.9 V 6072.4 h 458.3 v 667.7 h 326.1 l 528.1,-667.7 h 504.8 z m -2958.8,1615 c 93.4,0 170.9,-38.8 225.2,-100.9 46.6,-62.1 77.6,-131.9 77.6,-209.7 0,-77.6 -23.3,-139.7 -77.6,-201.7 -46.5,-54.3 -124.1,-85.6 -225.2,-85.6 h -512.6 v 597.9 z m 838.7,-1615 -559.2,675.4 c 178.8,62.1 302.9,147.7 372.7,248.6 62.3,108.6 101.2,240.7 101.2,388.1 0,194.2 -69.9,357.4 -202.1,489.3 -131.8,131.9 -318.2,202 -551.3,202 h -970.5 V 6072.4 h 457.9 v 667.7 h 326.4 l 520.1,-667.7 h 504.8 z m -2166.3,380.4 h -1110.5 v 411.7 h 1009.6 v 395.9 h -1009.6 v 396 h 1071.6 v 419.4 H 25128.3 V 6072.4 h 1553 v 419.2"
         style="fill:#ffffff;fill-opacity:1;fill-rule:evenodd;stroke:none"
         id="path24" /><path
         d="m 34671.5,5427.7 h 225.2 c 116.3,0 202,-31.1 248.5,-100.9 54.3,-62.1 85.3,-147.4 85.3,-240.8 0,-46.5 -7.7,-93.1 -15.4,-131.9 -15.6,-38.7 -31.1,-77.5 -54.3,-116.6 -23.3,-38.8 -54.4,-62.1 -100.9,-85.3 -46.9,-23.3 -101.1,-31.1 -163.2,-31.1 h -225.2 z m -264.1,240.7 V 4472.6 h 489.3 c 100.9,0 194.2,23.3 271.8,54.3 77.6,31.3 139.9,77.9 178.5,132.2 46.8,62 85.6,124.1 108.9,193.9 23.2,70.1 31,147.7 31,225.3 0,108.9 -15.6,209.7 -54.3,295.1 -46.6,85.5 -108.7,155.4 -202.1,209.7 -93,54.3 -201.9,85.3 -333.8,85.3 z m -1118.2,0 h -225 V 4472.6 h 271.8 v 372.9 l -15.5,395.9 597.9,-768.8 h 225.3 v 1195.8 h -264.4 v -403.7 l 15.5,-372.6 z m -737.6,0 v -667.7 c 0,-202 -77.5,-302.8 -240.7,-318.4 -100.9,0 -178.5,23.3 -233,77.6 -54.3,54.3 -85.4,132.2 -85.4,240.8 v 667.7 h -264 v -667.7 c 0,-186.5 54.3,-326.1 163.1,-419.5 108.7,-93.1 248.3,-139.6 411.5,-131.9 163.2,0 287.4,54.3 380.4,147.7 85.6,93.1 132.2,232.8 132.2,403.7 v 667.7 z m -1257.8,-597.9 c 0,-108.6 -38.8,-201.9 -108.9,-271.8 -69.8,-77.6 -162.9,-108.6 -279.6,-108.6 -108.6,0 -201.9,31 -271.5,108.6 -70,69.9 -108.9,163.2 -108.9,271.8 0,108.9 38.9,202 108.9,279.6 69.6,70.1 162.9,108.8 271.5,108.8 116.7,0 209.8,-38.7 279.6,-108.8 70.1,-77.6 108.9,-170.7 108.9,-279.6 z m 256,0 c 0,194.2 -54.3,341.7 -178.5,458.3 -116.3,108.6 -271.8,170.7 -466,170.7 -186.2,0 -341.5,-62.1 -465.7,-170.7 -116.6,-116.6 -170.9,-264.1 -170.9,-458.3 0,-193.9 54.3,-341.6 170.9,-458 124.2,-108.9 279.5,-163.2 465.7,-163.2 194.2,0 349.7,54.3 466,163.2 124.2,116.4 178.5,264.1 178.5,458 z m -2018.7,-597.9 v 427.2 h 566.6 v 240.6 h -566.6 v 279.8 h 605.6 v 248.2 H 29267 V 4472.6 Z m -1405.6,0 h 264.1 v 955.1 h 357.1 v 240.7 h -986.1 v -240.7 h 364.9 z m -699,597.9 c 0,-108.6 -31,-201.9 -100.8,-271.8 -77.6,-77.6 -163.2,-108.6 -279.6,-108.6 -116.3,0 -202,31 -279.5,108.6 -69.9,69.9 -100.9,163.2 -100.9,271.8 0,108.9 31,202 100.9,279.6 77.5,70.1 163.2,108.8 279.5,108.8 108.9,0 202,-38.7 271.8,-108.8 77.6,-77.6 108.6,-170.7 108.6,-279.6 z m 264,0 c 0,194.2 -62,341.7 -178.6,458.3 -116.4,108.6 -271.6,170.7 -465.8,170.7 -194.2,0 -349.4,-62.1 -465.7,-170.7 -116.6,-116.6 -178.8,-264.1 -178.8,-458.3 0,-193.9 62.2,-341.6 178.8,-458 116.3,-108.9 271.5,-163.2 465.7,-163.2 194.2,0 349.4,54.3 465.8,163.2 116.6,116.4 178.6,264.1 178.6,458 z m -2337.2,597.9 h -225 V 4472.6 h 263.7 v 372.9 l -7.7,395.9 590.2,-768.8 h 232.9 v 1195.8 h -271.8 v -403.7 l 15.6,-372.6 -597.9,776.3"
         style="fill:#353333;fill-opacity:1;fill-rule:evenodd;stroke:none"
         id="path26" /></g></g></svg>
